<svg width="60" height="60" viewBox="0 0 60 60" fill="none" xmlns="http://www.w3.org/2000/svg">
<g clip-path="url(#clip0)">
<rect width="60" height="60" fill="none"/>
<path d="M54.2447 40.9024C52.6619 38.644 51.3017 36.5721 50.2055 34.1281C49.1094 31.6841 48.2607 28.8434 47.7638 24.9941C47.3985 22.1645 46.7397 19.6564 45.7853 17.4666C45.0702 15.8252 44.1855 14.3672 43.1355 13.1037C41.5628 11.2093 39.6156 9.77156 37.3898 8.835C36.6006 8.50008 35.7822 8.23031 34.93 8.01996C34.93 8.01996 34.9288 8.01891 34.9276 8.01891C35.3077 7.26903 35.5258 6.41801 35.5246 5.52539C35.5246 4.76766 35.3706 4.03594 35.0896 3.37383C34.6691 2.38008 33.971 1.5402 33.0897 0.945588C32.2108 0.34969 31.1383 -0.00105232 30.0006 2.37182e-06C29.2429 2.37182e-06 28.511 0.155159 27.8488 0.43512C26.8551 0.855588 26.0153 1.55473 25.4195 2.43504C24.8236 3.31418 24.4741 4.38774 24.4752 5.52528C24.4752 6.28313 24.6292 7.01379 24.9102 7.6759C24.9597 7.79403 25.0136 7.90864 25.071 8.02102C25.071 8.02102 25.0699 8.02219 25.0688 8.02219C24.4854 8.1661 23.9142 8.33813 23.3611 8.53934C21.8401 9.09246 20.4326 9.86473 19.1747 10.8518C17.2861 12.3335 15.7425 14.2918 14.588 16.6616C13.4301 19.0314 12.6477 21.8126 12.2385 24.9941C11.7393 28.8432 10.8906 31.6841 9.79444 34.1281C8.69839 36.5721 7.33808 38.644 5.75757 40.9024C4.65694 42.4718 4.15796 44.2267 4.15796 45.8803C4.15796 46.7291 4.28944 47.5554 4.53905 48.3277C4.91452 49.4822 5.55765 50.53 6.47827 51.3191C6.93917 51.7137 7.4664 52.0397 8.05315 52.2634C8.63675 52.4893 9.27741 52.6107 9.9339 52.6107H21.8178C21.8998 53.4393 22.1077 54.2364 22.4214 54.9783C23.0475 56.4544 24.0885 57.7078 25.3982 58.5959C26.7102 59.4795 28.3032 60.0022 30.0017 60C31.1304 60 32.2164 59.7707 33.2023 59.3536C34.6806 58.7264 35.9342 57.6875 36.8222 56.3745C37.5608 55.2818 38.0442 53.9924 38.1824 52.6107H50.0662C50.9441 52.6107 51.7851 52.3927 52.5123 52.0059C53.061 51.7181 53.5444 51.3404 53.9592 50.9053C54.5787 50.2488 55.0474 49.4675 55.361 48.6155C55.678 47.7611 55.8422 46.8347 55.8422 45.8803C55.8422 44.2266 55.3431 42.4718 54.2447 40.9024ZM28.2277 4.7768C28.3716 4.43508 28.6178 4.13707 28.9259 3.92906C29.2349 3.72211 29.5958 3.60305 30.0006 3.60199C30.2704 3.60305 30.5188 3.6559 30.7482 3.75258C31.091 3.89766 31.3879 4.14387 31.5958 4.45078C31.8038 4.7611 31.923 5.12074 31.923 5.52539C31.923 5.79528 31.8689 6.04371 31.7723 6.27305C31.6283 6.61582 31.3823 6.91266 31.0742 7.12067C30.765 7.32867 30.4042 7.44785 30.0006 7.44785C29.7297 7.44785 29.4812 7.39383 29.2519 7.29715C28.909 7.15324 28.6122 6.90703 28.4043 6.59906C28.1974 6.28992 28.0783 5.93016 28.0771 5.52539C28.0771 5.25446 28.131 5.00602 28.2277 4.7768ZM13.0804 35.6018C14.3249 32.8318 15.2771 29.5976 15.8099 25.4549C16.1394 22.9031 16.7228 20.7244 17.5153 18.9076C18.1101 17.544 18.8227 16.3839 19.6333 15.4092C20.8552 13.9422 22.2987 12.8776 24.0119 12.1513C25.723 11.4285 27.7162 11.0496 30.0016 11.0496C32.0285 11.0496 33.8317 11.3486 35.4067 11.922C36.5904 12.3548 37.6506 12.9382 38.6017 13.6869C40.0294 14.8065 41.2266 16.2983 42.1777 18.2409C43.1276 20.1836 43.819 22.5816 44.1899 25.4548C44.7228 29.5975 45.675 32.8317 46.9194 35.6017C47.7481 37.4498 48.7002 39.0833 49.7187 40.6471H10.2835C11.3021 39.0834 12.252 37.4501 13.0804 35.6018ZM34.2624 53.573C33.9116 54.4016 33.3225 55.112 32.584 55.6102C31.8433 56.1103 30.9641 56.3981 30.0017 56.3981C29.3576 56.3981 28.754 56.2689 28.2007 56.0351C27.3744 55.6855 26.6639 55.0964 26.1648 54.3579C25.8151 53.8385 25.5657 53.2494 25.4499 52.6109H34.548C34.4883 52.9458 34.3905 53.2673 34.2624 53.573ZM52.0346 47.218C51.839 47.8228 51.5196 48.2939 51.1801 48.5817C51.0081 48.7289 50.835 48.8313 50.6553 48.9009C50.4732 48.9707 50.2854 49.0089 50.066 49.0089H37.7473H33.7036H26.2941H22.2494H9.9339C9.64046 49.0065 9.40327 48.9425 9.16726 48.8211C8.99194 48.7289 8.81651 48.5974 8.65245 48.422C8.40507 48.1623 8.1769 47.8025 8.01729 47.3653C7.85546 46.9302 7.75995 46.4209 7.75995 45.8802C7.76206 45.0236 7.9914 44.1029 8.54229 43.2204H51.4603C52.0089 44.1006 52.2382 45.0236 52.2405 45.8802C52.2403 46.3591 52.1662 46.8168 52.0346 47.218Z" fill="#265EB8"/>
</g>
<defs>
<clipPath id="clip0">
<rect width="60" height="60" fill="none"/>
</clipPath>
</defs>
</svg>
