<svg width="60" height="60" viewBox="0 0 60 60" fill="none" xmlns="http://www.w3.org/2000/svg">
<rect width="60" height="60" rx="30" fill="#2A2A3A"/>
<path d="M39.8882 33.9991H32.1789V40.6194H39.8882V33.9991Z" fill="white"/>
<path d="M29.1616 34.0992H20.1119V35.1048H29.1616V34.0992Z" fill="white"/>
<path d="M29.1616 39.5135H20.1119V40.5191H29.1616V39.5135Z" fill="white"/>
<path d="M29.1616 36.8066H20.1119V37.8122H29.1616V36.8066Z" fill="white"/>
<path d="M39.4001 16H20.6004C17.5071 16.0005 15.0009 18.5071 15 21.6V39.394C15.0015 43.0422 17.9568 45.9985 21.606 45.9995H38.3945C42.0431 45.9985 44.999 43.0427 45 39.394V21.6C44.9995 18.5071 42.4929 16.0005 39.4001 16ZM42.2347 39.394C42.2342 40.4575 41.8065 41.4111 41.1098 42.1093C40.4116 42.806 39.458 43.2337 38.3946 43.2341H21.606C20.5425 43.2336 19.5884 42.8059 18.8903 42.1093C18.1935 41.4111 17.7663 40.4575 17.7654 39.394V22.9546H42.2347V39.394H42.2347Z" fill="white"/>
<path d="M20.2125 31.6977H22.2389C23.3937 31.6977 24.0929 31.1949 24.0929 30.1422C24.0929 29.5063 23.7315 29.0659 23.378 28.9323V28.9166C23.7316 28.7202 23.9987 28.3589 23.9987 27.778C23.9987 26.9291 23.4566 26.3561 22.2944 26.3561H20.2125C20.1659 26.3561 20.1345 26.3875 20.1345 26.4346V31.6187C20.1345 31.6662 20.1659 31.6977 20.2125 31.6977ZM21.2893 27.3376C21.2893 27.3066 21.304 27.2905 21.3365 27.2905H22.1535C22.5929 27.2905 22.8522 27.5183 22.8522 27.9106C22.8522 28.3039 22.5929 28.5396 22.1535 28.5396H21.3365C21.304 28.5396 21.2893 28.5239 21.2893 28.4925V27.3376ZM21.2893 29.4739C21.2893 29.443 21.304 29.4273 21.3365 29.4273H22.2154C22.6877 29.4273 22.9386 29.6865 22.9386 30.0956C22.9386 30.5114 22.6877 30.7633 22.2154 30.7633H21.3365C21.304 30.7633 21.2893 30.7471 21.2893 30.7157V29.4739V29.4739Z" fill="white"/>
<path d="M25.6357 31.6977H29.1164C29.1631 31.6977 29.1945 31.6663 29.1945 31.6187V30.7472C29.1945 30.6995 29.1631 30.6686 29.1164 30.6686H26.7596C26.7277 30.6686 26.7124 30.6529 26.7124 30.621V26.4347C26.7124 26.3875 26.6815 26.3561 26.6339 26.3561H25.6357C25.5885 26.3561 25.5576 26.3875 25.5576 26.4347V31.6187C25.5576 31.6663 25.5886 31.6977 25.6357 31.6977Z" fill="white"/>
<path d="M32.1509 31.7836C33.0862 31.7836 33.8242 31.352 34.0992 30.4878C34.217 30.1186 34.248 29.8201 34.248 29.0266C34.248 28.2331 34.217 27.9346 34.0992 27.5653C33.8242 26.7017 33.0862 26.2696 32.1509 26.2696C31.216 26.2696 30.4776 26.7017 30.203 27.5653C30.0847 27.9346 30.0533 28.2331 30.0533 29.0266C30.0533 29.8201 30.0847 30.1186 30.203 30.4878C30.4775 31.3521 31.216 31.7836 32.1509 31.7836ZM31.3102 27.8796C31.4281 27.5104 31.7114 27.2905 32.1508 27.2905C32.5907 27.2905 32.8736 27.5104 32.9914 27.8796C33.0543 28.0687 33.0778 28.3269 33.0778 29.0267C33.0778 29.7253 33.0542 29.9851 32.9914 30.1732C32.8736 30.5429 32.5907 30.7633 32.1508 30.7633C31.7114 30.7633 31.4281 30.5428 31.3102 30.1732C31.2479 29.9851 31.2238 29.7253 31.2238 29.0267C31.2238 28.3269 31.2479 28.0687 31.3102 27.8796Z" fill="white"/>
<path d="M37.7321 31.7836C38.6743 31.7836 39.4129 31.3048 39.6804 30.448C39.7741 30.1579 39.813 29.718 39.813 29.2466V28.8061C39.813 28.7599 39.7816 28.728 39.7349 28.728H37.8971C37.8495 28.728 37.8181 28.7599 37.8181 28.8061V29.5613C37.8181 29.6079 37.8495 29.6393 37.8971 29.6393H38.6193C38.6507 29.6393 38.6665 29.6555 38.6665 29.6865C38.6665 29.9138 38.6429 30.0792 38.6036 30.2133C38.4936 30.5664 38.1479 30.7633 37.7473 30.7633C37.2839 30.7633 36.9926 30.5428 36.8748 30.1731C36.8125 29.985 36.7889 29.7253 36.7889 29.0266C36.7889 28.3269 36.8125 28.076 36.8748 27.8875C36.9926 27.5182 37.276 27.2904 37.7321 27.2904C38.1715 27.2904 38.4381 27.479 38.6507 27.8403C38.6665 27.8796 38.7057 27.8953 38.7612 27.8796L39.6014 27.5261C39.648 27.5025 39.6568 27.4554 39.6328 27.4078C39.3809 26.7635 38.7293 26.2696 37.732 26.2696C36.7809 26.2696 36.0425 26.7017 35.7676 27.5653C35.6497 27.9346 35.6178 28.2331 35.6178 29.0266C35.6178 29.8201 35.6497 30.1186 35.7676 30.4878C36.0425 31.3521 36.7811 31.7836 37.7321 31.7836Z" fill="white"/>
</svg>
