<svg width="60" height="60" viewBox="0 0 60 60" fill="none" xmlns="http://www.w3.org/2000/svg">
<rect width="60" height="60" rx="30" fill="#265EB8"/>
<g clip-path="url(#clip0)">
<path d="M39.8882 31.9991H32.1789V38.6194H39.8882V31.9991Z" fill="#265EB8"/>
<path d="M29.1616 32.0992H20.1119V33.1048H29.1616V32.0992Z" fill="#265EB8"/>
<path d="M29.1616 37.5135H20.1119V38.5191H29.1616V37.5135Z" fill="#265EB8"/>
<path d="M29.1616 34.8066H20.1119V35.8122H29.1616V34.8066Z" fill="#265EB8"/>
<path d="M39.4001 14H20.6004C17.5071 14.0005 15.0009 16.5071 15 19.6V37.394C15.0015 41.0422 17.9568 43.9985 21.606 43.9995H38.3945C42.0431 43.9985 44.999 41.0427 45 37.394V19.6C44.9995 16.5071 42.4929 14.0005 39.4001 14ZM42.2347 37.394C42.2342 38.4575 41.8065 39.4111 41.1098 40.1093C40.4116 40.806 39.458 41.2337 38.3946 41.2341H21.606C20.5425 41.2336 19.5884 40.8059 18.8903 40.1093C18.1935 39.4111 17.7663 38.4575 17.7654 37.394V20.9546H42.2347V37.394H42.2347Z" fill="#265EB8"/>
<path d="M20.2125 29.6977H22.2389C23.3937 29.6977 24.0929 29.1949 24.0929 28.1422C24.0929 27.5063 23.7315 27.0659 23.378 26.9323V26.9166C23.7316 26.7202 23.9987 26.3589 23.9987 25.778C23.9987 24.9291 23.4566 24.3561 22.2944 24.3561H20.2125C20.1659 24.3561 20.1345 24.3875 20.1345 24.4346V29.6187C20.1345 29.6662 20.1659 29.6977 20.2125 29.6977ZM21.2893 25.3376C21.2893 25.3066 21.304 25.2905 21.3365 25.2905H22.1535C22.5929 25.2905 22.8522 25.5183 22.8522 25.9106C22.8522 26.3039 22.5929 26.5396 22.1535 26.5396H21.3365C21.304 26.5396 21.2893 26.5239 21.2893 26.4925V25.3376ZM21.2893 27.4739C21.2893 27.443 21.304 27.4273 21.3365 27.4273H22.2154C22.6877 27.4273 22.9386 27.6865 22.9386 28.0956C22.9386 28.5114 22.6877 28.7633 22.2154 28.7633H21.3365C21.304 28.7633 21.2893 28.7471 21.2893 28.7157V27.4739V27.4739Z" fill="#265EB8"/>
<path d="M25.6357 29.6977H29.1164C29.1631 29.6977 29.1945 29.6663 29.1945 29.6187V28.7472C29.1945 28.6995 29.1631 28.6686 29.1164 28.6686H26.7596C26.7277 28.6686 26.7124 28.6529 26.7124 28.621V24.4347C26.7124 24.3875 26.6815 24.3561 26.6339 24.3561H25.6357C25.5885 24.3561 25.5576 24.3875 25.5576 24.4347V29.6187C25.5576 29.6663 25.5886 29.6977 25.6357 29.6977Z" fill="#265EB8"/>
<path d="M32.1509 29.7836C33.0862 29.7836 33.8242 29.352 34.0992 28.4878C34.217 28.1186 34.248 27.8201 34.248 27.0266C34.248 26.2331 34.217 25.9346 34.0992 25.5653C33.8242 24.7017 33.0862 24.2696 32.1509 24.2696C31.216 24.2696 30.4776 24.7017 30.203 25.5653C30.0847 25.9346 30.0533 26.2331 30.0533 27.0266C30.0533 27.8201 30.0847 28.1186 30.203 28.4878C30.4775 29.3521 31.216 29.7836 32.1509 29.7836ZM31.3102 25.8796C31.4281 25.5104 31.7114 25.2905 32.1508 25.2905C32.5907 25.2905 32.8736 25.5104 32.9914 25.8796C33.0543 26.0687 33.0778 26.3269 33.0778 27.0267C33.0778 27.7253 33.0542 27.9851 32.9914 28.1732C32.8736 28.5429 32.5907 28.7633 32.1508 28.7633C31.7114 28.7633 31.4281 28.5428 31.3102 28.1732C31.2479 27.9851 31.2238 27.7253 31.2238 27.0267C31.2238 26.3269 31.2479 26.0687 31.3102 25.8796Z" fill="#265EB8"/>
<path d="M37.7321 29.7836C38.6743 29.7836 39.4129 29.3048 39.6804 28.448C39.7741 28.1579 39.813 27.718 39.813 27.2466V26.8061C39.813 26.7599 39.7816 26.728 39.7349 26.728H37.8971C37.8495 26.728 37.8181 26.7599 37.8181 26.8061V27.5613C37.8181 27.6079 37.8495 27.6393 37.8971 27.6393H38.6193C38.6507 27.6393 38.6665 27.6555 38.6665 27.6865C38.6665 27.9138 38.6429 28.0792 38.6036 28.2133C38.4936 28.5664 38.1479 28.7633 37.7473 28.7633C37.2839 28.7633 36.9926 28.5428 36.8748 28.1731C36.8125 27.985 36.7889 27.7253 36.7889 27.0266C36.7889 26.3269 36.8125 26.076 36.8748 25.8875C36.9926 25.5182 37.276 25.2904 37.7321 25.2904C38.1715 25.2904 38.4381 25.479 38.6507 25.8403C38.6665 25.8796 38.7057 25.8953 38.7612 25.8796L39.6014 25.5261C39.648 25.5025 39.6568 25.4554 39.6328 25.4078C39.3809 24.7635 38.7293 24.2696 37.732 24.2696C36.7809 24.2696 36.0425 24.7017 35.7676 25.5653C35.6497 25.9346 35.6178 26.2331 35.6178 27.0266C35.6178 27.8201 35.6497 28.1186 35.7676 28.4878C36.0425 29.3521 36.7811 29.7836 37.7321 29.7836Z" fill="#265EB8"/>
<g clip-path="url(#clip1)">
<path d="M39.8882 35.3991H32.1789V42.0194H39.8882V35.3991Z" fill="white"/>
<path d="M29.1616 35.4992H20.1119V36.5048H29.1616V35.4992Z" fill="white"/>
<path d="M29.1616 40.9136H20.1119V41.9192H29.1616V40.9136Z" fill="white"/>
<path d="M29.1616 38.2067H20.1119V39.2122H29.1616V38.2067Z" fill="white"/>
<path d="M39.4001 17.4H20.6004C17.5071 17.4006 15.0009 19.9071 15 23V40.794C15.0015 44.4422 17.9568 47.3986 21.606 47.3996H38.3945C42.0431 47.3986 44.999 44.4427 45 40.794V23C44.9995 19.9071 42.4929 17.4006 39.4001 17.4ZM42.2347 40.794C42.2342 41.8575 41.8065 42.8111 41.1098 43.5093C40.4116 44.206 39.458 44.6337 38.3946 44.6342H21.606C20.5425 44.6336 19.5884 44.206 18.8903 43.5093C18.1935 42.8111 17.7663 41.8575 17.7654 40.794V24.3546H42.2347V40.794H42.2347Z" fill="white"/>
<path d="M20.2125 33.0977H22.2389C23.3937 33.0977 24.0929 32.5949 24.0929 31.5422C24.0929 30.9063 23.7315 30.4659 23.378 30.3323V30.3166C23.7316 30.1202 23.9987 29.7589 23.9987 29.1781C23.9987 28.3291 23.4566 27.7561 22.2944 27.7561H20.2125C20.1659 27.7561 20.1345 27.7875 20.1345 27.8346V33.0187C20.1345 33.0663 20.1659 33.0977 20.2125 33.0977ZM21.2893 28.7376C21.2893 28.7067 21.304 28.6905 21.3365 28.6905H22.1535C22.5929 28.6905 22.8522 28.9183 22.8522 29.3107C22.8522 29.7039 22.5929 29.9396 22.1535 29.9396H21.3365C21.304 29.9396 21.2893 29.9239 21.2893 29.8925V28.7376ZM21.2893 30.8739C21.2893 30.843 21.304 30.8273 21.3365 30.8273H22.2154C22.6877 30.8273 22.9386 31.0866 22.9386 31.4956C22.9386 31.9114 22.6877 32.1633 22.2154 32.1633H21.3365C21.304 32.1633 21.2893 32.1472 21.2893 32.1158V30.8739V30.8739Z" fill="white"/>
<path d="M25.6357 33.0977H29.1164C29.1631 33.0977 29.1945 33.0663 29.1945 33.0187V32.1472C29.1945 32.0995 29.1631 32.0686 29.1164 32.0686H26.7596C26.7277 32.0686 26.7124 32.0529 26.7124 32.021V27.8347C26.7124 27.7876 26.6815 27.7562 26.6339 27.7562H25.6357C25.5885 27.7562 25.5576 27.7876 25.5576 27.8347V33.0188C25.5576 33.0663 25.5886 33.0977 25.6357 33.0977Z" fill="white"/>
<path d="M32.1509 33.1836C33.0862 33.1836 33.8242 32.752 34.0992 31.8878C34.217 31.5186 34.248 31.2201 34.248 30.4266C34.248 29.6332 34.217 29.3346 34.0992 28.9654C33.8242 28.1017 33.0862 27.6696 32.1509 27.6696C31.216 27.6696 30.4776 28.1017 30.203 28.9654C30.0847 29.3346 30.0533 29.6332 30.0533 30.4266C30.0533 31.2201 30.0847 31.5186 30.203 31.8878C30.4775 32.7521 31.216 33.1836 32.1509 33.1836ZM31.3102 29.2797C31.4281 28.9105 31.7114 28.6905 32.1508 28.6905C32.5907 28.6905 32.8736 28.9105 32.9914 29.2797C33.0543 29.4687 33.0778 29.727 33.0778 30.4267C33.0778 31.1254 33.0542 31.3851 32.9914 31.5732C32.8736 31.9429 32.5907 32.1633 32.1508 32.1633C31.7114 32.1633 31.4281 31.9429 31.3102 31.5732C31.2479 31.3851 31.2238 31.1254 31.2238 30.4267C31.2238 29.727 31.2479 29.4687 31.3102 29.2797Z" fill="white"/>
<path d="M37.7321 33.1836C38.6743 33.1836 39.4129 32.7049 39.6804 31.8481C39.7741 31.5579 39.813 31.118 39.813 30.6466V30.2061C39.813 30.16 39.7816 30.128 39.7349 30.128H37.8971C37.8495 30.128 37.8181 30.16 37.8181 30.2061V30.9613C37.8181 31.0079 37.8495 31.0393 37.8971 31.0393H38.6193C38.6507 31.0393 38.6665 31.0556 38.6665 31.0865C38.6665 31.3138 38.6429 31.4793 38.6036 31.6133C38.4936 31.9664 38.1479 32.1633 37.7473 32.1633C37.2839 32.1633 36.9926 31.9428 36.8748 31.5731C36.8125 31.385 36.7889 31.1253 36.7889 30.4266C36.7889 29.727 36.8125 29.4761 36.8748 29.2875C36.9926 28.9182 37.276 28.6904 37.7321 28.6904C38.1715 28.6904 38.4381 28.879 38.6507 29.2403C38.6665 29.2796 38.7057 29.2954 38.7612 29.2796L39.6014 28.9261C39.648 28.9025 39.6568 28.8554 39.6328 28.8078C39.3809 28.1636 38.7293 27.6696 37.732 27.6696C36.7809 27.6696 36.0425 28.1017 35.7676 28.9654C35.6497 29.3346 35.6178 29.6332 35.6178 30.4266C35.6178 31.2201 35.6497 31.5186 35.7676 31.8878C36.0425 32.7521 36.7811 33.1836 37.7321 33.1836Z" fill="white"/>
</g>
</g>
<defs>
<clipPath id="clip0">
<rect width="30" height="30" fill="white" transform="translate(15 14)"/>
</clipPath>
<clipPath id="clip1">
<rect width="30" height="30" fill="white" transform="translate(15 17.4)"/>
</clipPath>
</defs>
</svg>
