<svg width="60" height="60" viewBox="0 0 60 60" fill="none" xmlns="http://www.w3.org/2000/svg">
<rect width="60" height="60" rx="30" fill="#F77754"/>
<g clip-path="url(#clip0)">
<path d="M39.8882 32.9991H32.1789V39.6194H39.8882V32.9991Z" fill="#F77754"/>
<path d="M29.1616 33.0992H20.1119V34.1048H29.1616V33.0992Z" fill="#F77754"/>
<path d="M29.1616 38.5135H20.1119V39.5191H29.1616V38.5135Z" fill="#F77754"/>
<path d="M29.1616 35.8066H20.1119V36.8122H29.1616V35.8066Z" fill="#F77754"/>
<path d="M39.4001 15H20.6004C17.5071 15.0005 15.0009 17.5071 15 20.6V38.394C15.0015 42.0422 17.9568 44.9985 21.606 44.9995H38.3945C42.0431 44.9985 44.999 42.0427 45 38.394V20.6C44.9995 17.5071 42.4929 15.0005 39.4001 15ZM42.2347 38.394C42.2342 39.4575 41.8065 40.4111 41.1098 41.1093C40.4116 41.806 39.458 42.2337 38.3946 42.2341H21.606C20.5425 42.2336 19.5884 41.8059 18.8903 41.1093C18.1935 40.4111 17.7663 39.4575 17.7654 38.394V21.9546H42.2347V38.394H42.2347Z" fill="#F77754"/>
<path d="M20.2125 30.6977H22.2389C23.3937 30.6977 24.0929 30.1949 24.0929 29.1422C24.0929 28.5063 23.7315 28.0659 23.378 27.9323V27.9166C23.7316 27.7202 23.9987 27.3589 23.9987 26.778C23.9987 25.9291 23.4566 25.3561 22.2944 25.3561H20.2125C20.1659 25.3561 20.1345 25.3875 20.1345 25.4346V30.6187C20.1345 30.6662 20.1659 30.6977 20.2125 30.6977ZM21.2893 26.3376C21.2893 26.3066 21.304 26.2905 21.3365 26.2905H22.1535C22.5929 26.2905 22.8522 26.5183 22.8522 26.9106C22.8522 27.3039 22.5929 27.5396 22.1535 27.5396H21.3365C21.304 27.5396 21.2893 27.5239 21.2893 27.4925V26.3376ZM21.2893 28.4739C21.2893 28.443 21.304 28.4273 21.3365 28.4273H22.2154C22.6877 28.4273 22.9386 28.6865 22.9386 29.0956C22.9386 29.5114 22.6877 29.7633 22.2154 29.7633H21.3365C21.304 29.7633 21.2893 29.7471 21.2893 29.7157V28.4739V28.4739Z" fill="#F77754"/>
<path d="M25.6357 30.6977H29.1164C29.1631 30.6977 29.1945 30.6663 29.1945 30.6187V29.7472C29.1945 29.6995 29.1631 29.6686 29.1164 29.6686H26.7596C26.7277 29.6686 26.7124 29.6529 26.7124 29.621V25.4347C26.7124 25.3875 26.6815 25.3561 26.6339 25.3561H25.6357C25.5885 25.3561 25.5576 25.3875 25.5576 25.4347V30.6187C25.5576 30.6663 25.5886 30.6977 25.6357 30.6977Z" fill="#F77754"/>
<path d="M32.1509 30.7836C33.0862 30.7836 33.8242 30.352 34.0992 29.4878C34.217 29.1186 34.248 28.8201 34.248 28.0266C34.248 27.2331 34.217 26.9346 34.0992 26.5653C33.8242 25.7017 33.0862 25.2696 32.1509 25.2696C31.216 25.2696 30.4776 25.7017 30.203 26.5653C30.0847 26.9346 30.0533 27.2331 30.0533 28.0266C30.0533 28.8201 30.0847 29.1186 30.203 29.4878C30.4775 30.3521 31.216 30.7836 32.1509 30.7836ZM31.3102 26.8796C31.4281 26.5104 31.7114 26.2905 32.1508 26.2905C32.5907 26.2905 32.8736 26.5104 32.9914 26.8796C33.0543 27.0687 33.0778 27.3269 33.0778 28.0267C33.0778 28.7253 33.0542 28.9851 32.9914 29.1732C32.8736 29.5429 32.5907 29.7633 32.1508 29.7633C31.7114 29.7633 31.4281 29.5428 31.3102 29.1732C31.2479 28.9851 31.2238 28.7253 31.2238 28.0267C31.2238 27.3269 31.2479 27.0687 31.3102 26.8796Z" fill="#F77754"/>
<path d="M37.7321 30.7836C38.6743 30.7836 39.4129 30.3048 39.6804 29.448C39.7741 29.1579 39.813 28.718 39.813 28.2466V27.8061C39.813 27.7599 39.7816 27.728 39.7349 27.728H37.8971C37.8495 27.728 37.8181 27.7599 37.8181 27.8061V28.5613C37.8181 28.6079 37.8495 28.6393 37.8971 28.6393H38.6193C38.6507 28.6393 38.6665 28.6555 38.6665 28.6865C38.6665 28.9138 38.6429 29.0792 38.6036 29.2133C38.4936 29.5664 38.1479 29.7633 37.7473 29.7633C37.2839 29.7633 36.9926 29.5428 36.8748 29.1731C36.8125 28.985 36.7889 28.7253 36.7889 28.0266C36.7889 27.3269 36.8125 27.076 36.8748 26.8875C36.9926 26.5182 37.276 26.2904 37.7321 26.2904C38.1715 26.2904 38.4381 26.479 38.6507 26.8403C38.6665 26.8796 38.7057 26.8953 38.7612 26.8796L39.6014 26.5261C39.648 26.5025 39.6568 26.4554 39.6328 26.4078C39.3809 25.7635 38.7293 25.2696 37.732 25.2696C36.7809 25.2696 36.0425 25.7017 35.7676 26.5653C35.6497 26.9346 35.6178 27.2331 35.6178 28.0266C35.6178 28.8201 35.6497 29.1186 35.7676 29.4878C36.0425 30.3521 36.7811 30.7836 37.7321 30.7836Z" fill="#F77754"/>
<g clip-path="url(#clip1)">
<path d="M39.8882 34.3991H32.1789V41.0194H39.8882V34.3991Z" fill="white"/>
<path d="M29.1616 34.4992H20.1119V35.5048H29.1616V34.4992Z" fill="white"/>
<path d="M29.1616 39.9136H20.1119V40.9192H29.1616V39.9136Z" fill="white"/>
<path d="M29.1616 37.2067H20.1119V38.2122H29.1616V37.2067Z" fill="white"/>
<path d="M39.4001 16.4H20.6004C17.5071 16.4006 15.0009 18.9071 15 22V39.794C15.0015 43.4422 17.9568 46.3986 21.606 46.3996H38.3945C42.0431 46.3986 44.999 43.4427 45 39.794V22C44.9995 18.9071 42.4929 16.4006 39.4001 16.4ZM42.2347 39.794C42.2342 40.8575 41.8065 41.8111 41.1098 42.5093C40.4116 43.206 39.458 43.6337 38.3946 43.6342H21.606C20.5425 43.6336 19.5884 43.206 18.8903 42.5093C18.1935 41.8111 17.7663 40.8575 17.7654 39.794V23.3546H42.2347V39.794H42.2347Z" fill="white"/>
<path d="M20.2125 32.0977H22.2389C23.3937 32.0977 24.0929 31.5949 24.0929 30.5422C24.0929 29.9063 23.7315 29.4659 23.378 29.3323V29.3166C23.7316 29.1202 23.9987 28.7589 23.9987 28.1781C23.9987 27.3291 23.4566 26.7561 22.2944 26.7561H20.2125C20.1659 26.7561 20.1345 26.7875 20.1345 26.8346V32.0187C20.1345 32.0663 20.1659 32.0977 20.2125 32.0977ZM21.2893 27.7376C21.2893 27.7067 21.304 27.6905 21.3365 27.6905H22.1535C22.5929 27.6905 22.8522 27.9183 22.8522 28.3107C22.8522 28.7039 22.5929 28.9396 22.1535 28.9396H21.3365C21.304 28.9396 21.2893 28.9239 21.2893 28.8925V27.7376ZM21.2893 29.8739C21.2893 29.843 21.304 29.8273 21.3365 29.8273H22.2154C22.6877 29.8273 22.9386 30.0866 22.9386 30.4956C22.9386 30.9114 22.6877 31.1633 22.2154 31.1633H21.3365C21.304 31.1633 21.2893 31.1472 21.2893 31.1158V29.8739V29.8739Z" fill="white"/>
<path d="M25.6357 32.0977H29.1164C29.1631 32.0977 29.1945 32.0663 29.1945 32.0187V31.1472C29.1945 31.0995 29.1631 31.0686 29.1164 31.0686H26.7596C26.7277 31.0686 26.7124 31.0529 26.7124 31.021V26.8347C26.7124 26.7876 26.6815 26.7562 26.6339 26.7562H25.6357C25.5885 26.7562 25.5576 26.7876 25.5576 26.8347V32.0188C25.5576 32.0663 25.5886 32.0977 25.6357 32.0977Z" fill="white"/>
<path d="M32.1509 32.1836C33.0862 32.1836 33.8242 31.752 34.0992 30.8878C34.217 30.5186 34.248 30.2201 34.248 29.4266C34.248 28.6332 34.217 28.3346 34.0992 27.9654C33.8242 27.1017 33.0862 26.6696 32.1509 26.6696C31.216 26.6696 30.4776 27.1017 30.203 27.9654C30.0847 28.3346 30.0533 28.6332 30.0533 29.4266C30.0533 30.2201 30.0847 30.5186 30.203 30.8878C30.4775 31.7521 31.216 32.1836 32.1509 32.1836ZM31.3102 28.2797C31.4281 27.9105 31.7114 27.6905 32.1508 27.6905C32.5907 27.6905 32.8736 27.9105 32.9914 28.2797C33.0543 28.4687 33.0778 28.727 33.0778 29.4267C33.0778 30.1254 33.0542 30.3851 32.9914 30.5732C32.8736 30.9429 32.5907 31.1633 32.1508 31.1633C31.7114 31.1633 31.4281 30.9429 31.3102 30.5732C31.2479 30.3851 31.2238 30.1254 31.2238 29.4267C31.2238 28.727 31.2479 28.4687 31.3102 28.2797Z" fill="white"/>
<path d="M37.7321 32.1836C38.6743 32.1836 39.4129 31.7049 39.6804 30.8481C39.7741 30.5579 39.813 30.118 39.813 29.6466V29.2061C39.813 29.16 39.7816 29.128 39.7349 29.128H37.8971C37.8495 29.128 37.8181 29.16 37.8181 29.2061V29.9613C37.8181 30.0079 37.8495 30.0393 37.8971 30.0393H38.6193C38.6507 30.0393 38.6665 30.0556 38.6665 30.0865C38.6665 30.3138 38.6429 30.4793 38.6036 30.6133C38.4936 30.9664 38.1479 31.1633 37.7473 31.1633C37.2839 31.1633 36.9926 30.9428 36.8748 30.5731C36.8125 30.385 36.7889 30.1253 36.7889 29.4266C36.7889 28.727 36.8125 28.4761 36.8748 28.2875C36.9926 27.9182 37.276 27.6904 37.7321 27.6904C38.1715 27.6904 38.4381 27.879 38.6507 28.2403C38.6665 28.2796 38.7057 28.2954 38.7612 28.2796L39.6014 27.9261C39.648 27.9025 39.6568 27.8554 39.6328 27.8078C39.3809 27.1636 38.7293 26.6696 37.732 26.6696C36.7809 26.6696 36.0425 27.1017 35.7676 27.9654C35.6497 28.3346 35.6178 28.6332 35.6178 29.4266C35.6178 30.2201 35.6497 30.5186 35.7676 30.8878C36.0425 31.7521 36.7811 32.1836 37.7321 32.1836Z" fill="white"/>
</g>
</g>
<defs>
<clipPath id="clip0">
<rect width="30" height="30" fill="white" transform="translate(15 15)"/>
</clipPath>
<clipPath id="clip1">
<rect width="30" height="30" fill="white" transform="translate(15 16.4)"/>
</clipPath>
</defs>
</svg>
