<svg width="60" height="60" viewBox="0 0 60 60" fill="none" xmlns="http://www.w3.org/2000/svg">
<rect width="60" height="60" fill="white"/>
<path d="M30 0C13.4578 0 0 13.4583 0 30C0 46.5427 13.4578 60 30 60C46.5422 60 60 46.5427 60 30C60 13.4583 46.5422 0 30 0ZM30 52.8571C17.3968 52.8571 7.14293 42.6041 7.14293 30C7.14293 17.3968 17.3968 7.14293 30 7.14293C42.6032 7.14293 52.8571 17.3968 52.8571 30C52.8571 42.6041 42.6032 52.8571 30 52.8571Z" fill="#F77754"/>
<path d="M30.2852 13.5654C28.7841 13.5654 27.5671 14.7821 27.5671 16.2835V28.5892L18.8897 37.2665C17.8279 38.3276 17.8279 40.0488 18.8897 41.1108C19.9512 42.1719 21.6722 42.1719 22.7339 41.1108L33.0036 30.8413V28.0562V16.2835C33.0036 14.7821 31.7866 13.5654 30.2852 13.5654Z" fill="#F77754"/>
</svg>
