<svg width="60" height="60" viewBox="0 0 60 60" fill="none" xmlns="http://www.w3.org/2000/svg">
<rect width="60" height="60" fill="white"/>
<path d="M30 0C13.4314 0 0 13.4314 0 30C0 46.5686 13.4314 60 30 60C46.5686 60 60 46.5686 60 30C60 13.4314 46.5686 0 30 0ZM38.345 18.7335L35.1697 18.7349C32.68 18.7349 32.1979 19.918 32.1979 21.6543V25.4828H38.1359L37.3627 31.4794H32.1979V46.8661H26.0054V31.4794H20.8275V25.4828H26.0054V21.0605C26.0054 15.9285 29.1397 13.1339 33.718 13.1339C35.9109 13.1339 37.7957 13.2971 38.3452 13.3702V18.7335H38.345Z" fill="#265EB8"/>
</svg>
