<svg width="60" height="54" viewBox="0 0 60 54" fill="none" xmlns="http://www.w3.org/2000/svg">
<path d="M26.1968 6.81738C33.1512 8.02219 49.1528 17.0768 47.0141 23.6924L46.4025 26.5598C46.4025 26.5598 49.2993 35.175 59.9999 34.8729C57.8593 41.7888 51.9872 43.8798 44.7967 44.2973C33.9348 43.673 35.407 40.5656 35.407 40.5656C35.407 40.5656 44.3682 35.8049 16.5673 32.6756L26.1968 6.81738Z" fill="#2A2A3A"/>
<path d="M2.81614 53.9853C2.48836 53.9853 2.15696 53.9286 1.83282 53.8077C0.377113 53.2657 -0.364449 51.6452 0.177543 50.1876L18.1823 1.84616C18.7262 0.388577 20.3503 -0.347478 21.8005 0.190881C23.2581 0.732874 23.9997 2.35334 23.4558 3.81092L5.45285 52.1525C5.03168 53.286 3.95684 53.9853 2.81614 53.9853Z" fill="#2A2A3A"/>
</svg>
