<svg width="60" height="60" viewBox="0 0 60 60" fill="none" xmlns="http://www.w3.org/2000/svg">
<rect width="60" height="60" fill="none"/>
<path d="M26.1968 9.81738C33.1512 11.0222 49.1528 20.0768 47.0141 26.6924L46.4025 29.5598C46.4025 29.5598 49.2993 38.175 59.9999 37.8729C57.8593 44.7888 51.9872 46.8798 44.7967 47.2973C33.9348 46.673 35.407 43.5656 35.407 43.5656C35.407 43.5656 44.3682 38.8049 16.5673 35.6756L26.1968 9.81738Z" fill="#265EB8"/>
<path d="M2.81614 56.9853C2.48836 56.9853 2.15696 56.9286 1.83282 56.8077C0.377113 56.2657 -0.364449 54.6452 0.177543 53.1876L18.1823 4.84616C18.7262 3.38858 20.3503 2.65252 21.8005 3.19088C23.2581 3.73287 23.9997 5.35334 23.4558 6.81092L5.45285 55.1525C5.03168 56.286 3.95684 56.9853 2.81614 56.9853Z" fill="#265EB8"/>
</svg>
