<svg width="60" height="60" viewBox="0 0 60 60" fill="none" xmlns="http://www.w3.org/2000/svg">
<rect width="60" height="60" fill="none"/>
<path d="M16.9208 0C8.32033 0 1.34955 3.3948 1.34955 7.58426V11.6346C1.34955 15.8239 8.32033 19.2188 16.9208 19.2188C25.5176 19.2188 32.4903 15.8239 32.4903 11.6345V7.58426C32.4903 3.3948 25.5176 0 16.9208 0ZM16.9208 3.14941C24.5015 3.14941 29.3391 6.06082 29.3391 7.58426C29.3391 9.1077 24.5015 12.0191 16.9208 12.0191C9.33658 12.0191 4.50084 9.1077 4.50084 7.58426C4.50084 6.06082 9.33658 3.14941 16.9208 3.14941Z" fill="#F77754"/>
<path d="M16.919 25.3125C19.7992 25.3125 22.4964 24.928 24.8108 24.2651C22.5824 26.2243 20.7587 28.645 19.4733 31.3623C18.6456 31.43 17.7924 31.4685 16.919 31.4685C8.3222 31.4685 1.34955 28.0682 1.34955 23.8806V19.1198C1.34955 19.043 1.40814 18.9734 1.48502 18.966C1.5217 18.955 1.56189 18.9734 1.58943 19.0136C1.57115 19.0136 1.58943 19.0685 1.6956 19.3286C3.20252 22.749 9.44463 25.3125 16.919 25.3125Z" fill="#F77754"/>
<path d="M17.3493 40.7922C17.3493 41.7261 17.4079 42.6379 17.5306 43.5389C17.331 43.5499 17.1277 43.5499 16.919 43.5499C8.3222 43.5499 1.34955 40.1587 1.34955 35.973V31.1995C1.34955 31.1318 1.40814 31.0658 1.48502 31.0549C1.54724 31.0475 1.58756 31.0842 1.61685 31.1281C1.58017 31.0806 1.54174 31.0549 1.6956 31.4211C3.20252 34.8378 9.44463 37.4051 16.919 37.4051C17.1497 37.4051 17.3896 37.4051 17.6185 37.383C17.4353 38.4979 17.3493 39.6314 17.3493 40.7922Z" fill="#F77754"/>
<path d="M22.641 55.1111C20.874 55.459 18.9441 55.6403 16.919 55.6403C8.3222 55.6403 1.34955 52.251 1.34955 48.0543V43.2899C1.34955 43.213 1.40814 43.1544 1.48502 43.1471C1.54361 43.136 1.59857 43.1653 1.61873 43.2239C1.58029 43.1764 1.53271 43.1287 1.6956 43.5023C3.20252 46.93 9.44463 49.4935 16.919 49.4935C17.6569 49.4935 18.3966 49.4642 19.1071 49.4166C19.9896 51.5003 21.1908 53.4229 22.641 55.1111Z" fill="#F77754"/>
<path d="M45.456 39.5527H41.3105L40.8673 40.2429V41.9019H45.456V41.9092V43.9197V44.2566H40.8673V47.8125H38.0163V44.2566H33.4277V43.9197V41.9092V41.9019H38.0163V40.2466L37.5714 39.5527H33.4277V37.5403H36.2769L33.8544 33.772H36.2695L39.441 38.7048L42.6123 33.772H45.0293L42.6068 37.5403H45.456V39.5527Z" fill="#F77754"/>
<path d="M39.441 26.3855C47.384 26.3855 53.8478 32.8491 53.8478 40.7923C53.8478 48.7355 47.3842 55.1991 39.441 55.1991C31.4996 55.1991 25.036 48.7355 25.036 40.7923C25.036 32.8491 31.4996 26.3855 39.441 26.3855ZM39.441 21.5845C28.8319 21.5845 20.235 30.185 20.235 40.7923C20.235 51.4014 28.8317 60 39.441 60C50.0502 60 58.6506 51.4014 58.6506 40.7923C58.6505 30.1849 50.0501 21.5845 39.441 21.5845Z" fill="#F77754"/>
</svg>
