<svg width="58" height="60" viewBox="0 0 58 60" fill="none" xmlns="http://www.w3.org/2000/svg">
<path d="M15.9208 0C7.32033 0 0.349548 3.3948 0.349548 7.58426V11.6346C0.349548 15.8239 7.32033 19.2188 15.9208 19.2188C24.5176 19.2188 31.4903 15.8239 31.4903 11.6345V7.58426C31.4903 3.3948 24.5176 0 15.9208 0ZM15.9208 3.14941C23.5015 3.14941 28.3391 6.06082 28.3391 7.58426C28.3391 9.1077 23.5015 12.0191 15.9208 12.0191C8.33658 12.0191 3.50084 9.1077 3.50084 7.58426C3.50084 6.06082 8.33658 3.14941 15.9208 3.14941Z" fill="#2A2A3A"/>
<path d="M15.919 25.3125C18.7992 25.3125 21.4964 24.928 23.8108 24.2651C21.5824 26.2243 19.7587 28.645 18.4733 31.3623C17.6456 31.43 16.7924 31.4685 15.919 31.4685C7.3222 31.4685 0.349548 28.0682 0.349548 23.8806V19.1198C0.349548 19.043 0.408142 18.9734 0.485017 18.966C0.521697 18.955 0.561892 18.9734 0.589431 19.0136C0.57115 19.0136 0.589431 19.0685 0.695603 19.3286C2.20252 22.749 8.44463 25.3125 15.919 25.3125Z" fill="#2A2A3A"/>
<path d="M16.3493 40.7922C16.3493 41.7261 16.4079 42.6379 16.5306 43.5389C16.331 43.5499 16.1277 43.5499 15.919 43.5499C7.3222 43.5499 0.349548 40.1587 0.349548 35.973V31.1995C0.349548 31.1318 0.408142 31.0658 0.485017 31.0549C0.547244 31.0475 0.587556 31.0842 0.616853 31.1281C0.580173 31.0806 0.541736 31.0549 0.695603 31.4211C2.20252 34.8378 8.44463 37.4051 15.919 37.4051C16.1497 37.4051 16.3896 37.4051 16.6185 37.383C16.4353 38.4979 16.3493 39.6314 16.3493 40.7922Z" fill="#2A2A3A"/>
<path d="M21.641 55.1111C19.874 55.459 17.9441 55.6403 15.919 55.6403C7.3222 55.6403 0.349548 52.251 0.349548 48.0543V43.2899C0.349548 43.213 0.408142 43.1544 0.485017 43.1471C0.543611 43.136 0.598572 43.1653 0.618728 43.2239C0.580291 43.1764 0.532712 43.1287 0.695603 43.5023C2.20252 46.93 8.44463 49.4935 15.919 49.4935C16.6569 49.4935 17.3966 49.4642 18.1071 49.4166C18.9896 51.5003 20.1908 53.4229 21.641 55.1111Z" fill="#2A2A3A"/>
<path d="M44.456 39.5527H40.3105L39.8673 40.2429V41.9019H44.456V41.9092V43.9197V44.2566H39.8673V47.8125H37.0163V44.2566H32.4277V43.9197V41.9092V41.9019H37.0163V40.2466L36.5714 39.5527H32.4277V37.5403H35.2769L32.8544 33.772H35.2695L38.441 38.7048L41.6123 33.772H44.0293L41.6068 37.5403H44.456V39.5527Z" fill="#2A2A3A"/>
<path d="M38.441 26.3855C46.384 26.3855 52.8478 32.8491 52.8478 40.7923C52.8478 48.7355 46.3842 55.1991 38.441 55.1991C30.4996 55.1991 24.036 48.7355 24.036 40.7923C24.036 32.8491 30.4996 26.3855 38.441 26.3855ZM38.441 21.5845C27.8319 21.5845 19.235 30.185 19.235 40.7923C19.235 51.4014 27.8317 60 38.441 60C49.0502 60 57.6506 51.4014 57.6506 40.7923C57.6505 30.1849 49.0501 21.5845 38.441 21.5845Z" fill="#2A2A3A"/>
</svg>
