<svg width="60" height="60" viewBox="0 0 60 60" fill="none" xmlns="http://www.w3.org/2000/svg">
<g clip-path="url(#clip0)">
<rect width="60" height="60" fill="none"/>
<path d="M51.1924 8.76463C45.7753 3.34412 38.2676 -0.0025156 30.0009 6.25236e-05C21.746 -0.000757789 14.2398 3.33065 8.82785 8.746C3.39059 14.179 -0.00175713 21.6955 6.82804e-07 29.9975C6.82804e-07 38.2769 3.36012 45.7881 8.78731 51.2119C14.2111 56.6383 21.7222 59.9991 30.0009 59.9984C32.4872 59.9984 34.8922 59.6773 37.1892 59.1093L37.703 58.9825L37.7234 58.9606C37.7234 58.9606 37.7216 58.9622 37.7234 58.9622L58.9639 37.7217C58.9605 37.7217 58.9588 37.7207 58.9571 37.7207L58.9859 37.6938L59.1127 37.1824C59.6771 34.8888 60 32.4836 60 29.9974C60.0016 21.7072 56.6246 14.1943 51.1924 8.76463ZM55.9097 35.6234C55.7897 35.6479 55.6342 35.6732 55.4432 35.6893C55.0984 35.7222 54.6555 35.7331 54.1486 35.723L54.1181 35.7222H54.135C52.5834 35.7105 50.3473 35.4974 47.8255 35.903L47.8289 35.9022C45.2886 36.3021 42.4507 37.4471 39.9797 39.9249L39.9577 39.946L39.9543 39.9512L39.9374 39.968L39.934 39.9714C38.0545 41.8492 36.9169 43.945 36.3253 45.9699C35.4381 48.9962 35.6747 51.7571 35.7135 53.6704L35.7152 53.6788C35.7456 54.6263 35.7203 55.4147 35.6426 55.8145L35.6442 55.8103C35.6358 55.8534 35.6291 55.8745 35.6205 55.91C33.8003 56.3063 31.9275 56.5371 30.0007 56.5371C22.6669 56.5371 16.043 53.57 11.2345 48.7647C6.42938 43.957 3.46301 37.3322 3.46137 29.9977C3.46301 22.6471 6.45293 16.0182 11.2751 11.1936C16.0668 6.40436 22.6839 3.46178 30.0007 3.46108C37.3242 3.46178 43.9446 6.41631 48.7448 11.2131C53.5584 16.0293 56.5366 22.6557 56.5384 29.9978C56.5385 31.926 56.307 33.8022 55.9097 35.6234Z" fill="#265EB8"/>
<path d="M35.7188 19.8953C35.4973 19.5564 35.1221 19.3493 34.7181 19.3493H33.9813C33.5181 19.3493 33.099 19.6198 32.9029 20.0414L24.2019 38.969C24.0379 39.3332 24.065 39.7634 24.283 40.1031C24.5027 40.4437 24.8813 40.6507 25.2853 40.6507H26.0188C26.4836 40.6507 26.9046 40.3819 27.0972 39.9603L35.8 21.0327C35.9673 20.6677 35.9385 20.2384 35.7188 19.8953Z" fill="#265EB8"/>
<path d="M26.7168 28.3496C26.9264 27.7487 26.9906 28.1653 26.9906 26.2757C26.9906 24.3827 26.9264 24.802 26.7168 24.1977C26.208 22.6994 24.7647 21.7334 22.8396 21.7334C20.9178 21.7334 19.4777 22.6993 18.9656 24.1977C18.7544 24.802 18.6935 24.3828 18.6935 26.2757C18.6935 28.1653 18.7544 27.7487 18.9656 28.3496C19.4777 29.8521 20.9178 30.8155 22.8396 30.8155C24.7647 30.8155 26.2081 29.8521 26.7168 28.3496ZM23.8926 27.7487C23.7422 28.2017 23.3534 28.4392 22.8396 28.4392C22.3309 28.4392 21.9404 28.2018 21.7899 27.7487C21.6986 27.5087 21.6699 28.1071 21.6699 26.2757C21.6699 24.441 21.6986 25.0386 21.7899 24.802C21.9404 24.349 22.3309 24.1082 22.8396 24.1082C23.3533 24.1082 23.742 24.349 23.8926 24.802C23.9838 25.0387 24.0126 24.441 24.0126 26.2757C24.0125 28.1071 23.9838 27.5086 23.8926 27.7487Z" fill="#265EB8"/>
<path d="M37.1588 29.1862C35.2337 29.1862 33.792 30.1496 33.2816 31.6488C33.0736 32.253 33.0111 31.8296 33.0111 33.7244C33.0111 35.6175 33.0736 35.1991 33.2816 35.7965C33.7919 37.3017 35.2337 38.2659 37.1588 38.2659C39.0806 38.2659 40.5274 37.3017 41.0361 35.7965C41.2456 35.1991 41.3066 35.6175 41.3066 33.7244C41.3066 31.8297 41.2458 32.2531 41.0361 31.6488C40.5274 30.1496 39.0806 29.1862 37.1588 29.1862ZM38.2084 35.1991C38.0598 35.6496 37.671 35.8912 37.1588 35.8912C36.6467 35.8912 36.2563 35.6496 36.1058 35.1991C36.0163 34.9599 35.9874 35.5566 35.9874 33.7244C35.9874 31.8889 36.0161 32.4906 36.1058 32.2531C36.2563 31.796 36.6466 31.5576 37.1588 31.5576C37.671 31.5576 38.0598 31.796 38.2084 32.2531C38.3031 32.4906 38.3318 31.8889 38.3318 33.7244C38.3319 35.5566 38.3031 34.9599 38.2084 35.1991Z" fill="#265EB8"/>
</g>
<defs>
<clipPath id="clip0">
<rect width="60" height="60" fill="white"/>
</clipPath>
</defs>
</svg>
