<svg width="60" height="60" viewBox="0 0 60 60" fill="none" xmlns="http://www.w3.org/2000/svg">
<rect width="60" height="60" fill="white"/>
<path d="M30.0839 31.0908C38.6681 31.0908 45.6281 24.1309 45.6281 15.5454C45.6281 6.96234 38.6681 0 30.0839 0C21.4985 0 14.5398 6.96234 14.5398 15.5454C14.5398 24.1309 21.4985 31.0908 30.0839 31.0908Z" fill="#2A2A3A"/>
<path d="M49.9911 46.0668C49.2971 41.9097 45.7723 36.1634 43.2467 33.4733C42.5636 32.7453 41.3778 33.0481 40.9611 33.3061C37.7923 35.2598 34.0726 36.3997 30.0838 36.3997C26.0953 36.3997 22.3755 35.2598 19.2067 33.3061C18.7901 33.0481 17.6042 32.7453 16.921 33.4733C14.3956 36.1634 10.8708 41.9097 10.1767 46.0668C8.47143 56.302 19.4055 60 30.084 60C40.7624 60 51.6965 56.302 49.9911 46.0668Z" fill="#2A2A3A"/>
</svg>
