<svg width="60" height="60" viewBox="0 0 60 60" fill="none" xmlns="http://www.w3.org/2000/svg">
<rect width="60" height="60" fill="none"/>
<path d="M29.9999 31.0908C38.5841 31.0908 45.5441 24.1309 45.5441 15.5454C45.5441 6.96234 38.5841 0 29.9999 0C21.4145 0 14.4558 6.96234 14.4558 15.5454C14.4558 24.1309 21.4145 31.0908 29.9999 31.0908Z" fill="#265EB8"/>
<path d="M49.9071 46.0668C49.2131 41.9097 45.6883 36.1634 43.1627 33.4733C42.4796 32.7453 41.2938 33.0481 40.8771 33.3061C37.7083 35.2598 33.9886 36.3997 29.9999 36.3997C26.0113 36.3997 22.2915 35.2598 19.1228 33.3061C18.7062 33.0481 17.5202 32.7453 16.837 33.4733C14.3116 36.1634 10.7869 41.9097 10.0928 46.0668C8.38744 56.302 19.3215 60 30 60C40.6785 60 51.6125 56.302 49.9071 46.0668Z" fill="#265EB8"/>
</svg>
