<svg width="60" height="60" viewBox="0 0 60 60" fill="none" xmlns="http://www.w3.org/2000/svg">
<rect width="60" height="60" fill="white"/>
<path d="M24.2652 19.5869C24.1443 19.5155 23.9905 19.5117 23.866 19.5832C23.7452 19.6528 23.6682 19.7847 23.6682 19.9275V29.9984V40.071C23.6682 40.2156 23.7451 40.3457 23.866 40.4153C23.9906 40.4885 24.1443 40.4849 24.2652 40.4117L41.1402 30.339C41.261 30.2694 41.3325 30.1395 41.3325 29.9985C41.3325 29.8611 41.2611 29.7293 41.1402 29.6597L24.2652 19.5869Z" fill="#F77754"/>
<path d="M30 0C13.4326 0 0 13.4326 0 30C0 46.5674 13.4326 60 30 60C46.5674 60 60 46.5674 60 30C60 13.4326 46.5674 0 30 0ZM30 52.5C17.5928 52.5 7.5 42.4072 7.5 30C7.5 17.5928 17.5928 7.5 30 7.5C42.4072 7.5 52.5 17.5928 52.5 30C52.5 42.4072 42.4072 52.5 30 52.5Z" fill="#F77754"/>
</svg>
