<svg width="60" height="60" viewBox="0 0 60 60" fill="none" xmlns="http://www.w3.org/2000/svg">
<rect width="60" height="60" fill="white"/>
<path d="M30 0C13.4314 0 0 13.4314 0 30C0 46.5686 13.4314 60 30 60C46.5686 60 60 46.5686 60 30C60 13.4314 46.5686 0 30 0ZM30.5773 25.4755C30.5871 25.476 30.5965 25.478 30.6066 25.4784C30.504 25.0388 30.4509 24.5803 30.4509 24.1095C30.4509 20.7922 33.1405 18.1027 36.4582 18.1027C38.1858 18.1027 39.7468 18.8321 40.8427 19.9997C41.9677 19.7782 43.0322 19.3934 44.0218 18.8837C44.2305 18.7825 44.4397 18.6818 44.6453 18.5704C44.2891 19.6642 43.6206 20.6108 42.7538 21.328C42.5189 21.5127 42.2777 21.6911 42.0124 21.8371C42.0305 21.835 42.048 21.831 42.066 21.8288C42.0484 21.8396 42.0338 21.8545 42.0158 21.8653C43.0004 21.7475 43.9446 21.5078 44.8413 21.169C45.0423 21.0996 45.243 21.0294 45.4421 20.952C44.6404 22.1425 43.6313 23.1896 42.4685 24.0292C42.48 24.2866 42.4859 24.5455 42.4859 24.8062C42.4859 32.7441 36.4439 41.8971 25.3948 41.8971C22.0025 41.8971 18.845 40.9029 16.1866 39.1985C16.6566 39.2539 17.1349 39.2823 17.6197 39.2823C19.8622 39.2823 21.9573 38.6648 23.7584 37.6018C24.212 37.3405 24.6558 37.0582 25.0794 36.7387C25.0679 36.7385 25.0575 36.7357 25.046 36.7355C25.057 36.7269 25.069 36.7195 25.0799 36.711C22.8039 36.669 20.8396 35.3587 19.8564 33.4594C19.7099 33.1677 19.5845 32.8622 19.4856 32.5417C19.8472 32.6096 20.2175 32.6469 20.5989 32.6469C20.9962 32.6469 21.38 32.5958 21.7556 32.5223C21.8959 32.5027 22.0376 32.4863 22.1759 32.4635C22.1576 32.4598 22.1415 32.4518 22.1232 32.4479C22.1422 32.443 22.1626 32.4414 22.1814 32.4362C19.4334 31.8844 17.3627 29.4564 17.3627 26.5461C17.3627 26.5232 17.363 26.5008 17.3632 26.4782L17.366 26.4717C18.013 26.8308 18.7363 27.0684 19.5023 27.1678C19.6909 27.1993 19.8798 27.2283 20.0686 27.2448C20.0557 27.2361 20.0446 27.2256 20.0318 27.2169C20.0496 27.2176 20.0666 27.2211 20.0842 27.2217C18.4724 26.1446 17.412 24.3057 17.412 22.2218C17.412 21.2677 17.6449 20.3718 18.0409 19.5707C18.1041 19.4502 18.1602 19.3271 18.2327 19.2104C20.8942 22.4708 24.7385 24.7148 29.1079 25.3218C29.5954 25.3927 30.0843 25.4558 30.5789 25.4844C30.5782 25.4816 30.578 25.4784 30.5773 25.4755Z" fill="#265EB8"/>
</svg>
